<svg width="45" height="44" viewBox="0 0 45 44" fill="none" xmlns="http://www.w3.org/2000/svg">
<rect width="45" height="44" rx="8" fill="white" fill-opacity="0.1"/>
<rect x="0.5" y="0.5" width="44" height="43" rx="7.5" stroke="white" stroke-opacity="0.15"/>
<g clip-path="url(#clip0_183_23)">
<path d="M15.2696 11.7311C15.2696 11.0992 15.2696 10.5353 15.2696 9.97651C15.2546 9.84732 15.2682 9.71637 15.3094 9.59315C15.3506 9.46992 15.4183 9.3575 15.5078 9.26404C15.5972 9.17057 15.7061 9.09839 15.8265 9.05273C15.9469 9.00706 16.0759 8.98905 16.204 9.00001C16.3322 8.98817 16.4613 9.00482 16.5825 9.04877C16.7036 9.09272 16.8137 9.16291 16.9052 9.25444C16.9967 9.34597 17.0673 9.45663 17.112 9.57865C17.1568 9.70067 17.1746 9.8311 17.1643 9.96083C17.1901 10.5248 17.1643 11.094 17.1643 11.7206H21.5372V10.0444C21.5372 9.4021 21.8366 9.00001 22.4923 9.00001C23.1479 9.00001 23.4422 9.40732 23.4422 10.0444V11.7154H27.7944V10.1175C27.7944 9.45432 28.0577 8.99478 28.765 8.99478C29.4723 8.99478 29.7201 9.4752 29.7098 10.1332C29.7098 10.6554 29.7098 11.1514 29.7098 11.6997C29.9937 11.7415 30.1796 11.7781 30.3809 11.7885C31.3601 11.8344 32.2835 12.2629 32.9566 12.9837C33.6298 13.7045 34.0001 14.6613 33.9897 15.6527C34.0241 20.8468 34.0241 26.0444 33.9897 31.2454C33.992 31.7485 33.894 32.2468 33.7015 32.7107C33.5089 33.1745 33.2258 33.5942 32.8691 33.9448C32.5124 34.2953 32.0895 34.5695 31.6256 34.7508C31.1616 34.9321 30.6663 35.0169 30.1693 35C25.0685 35.0244 19.9677 35.0244 14.8669 35C13.8562 34.9945 12.8884 34.5864 12.1733 33.864C11.4581 33.1416 11.0532 32.1632 11.0465 31.141C11.0086 25.9887 11.0086 20.8364 11.0465 15.6841C11.0383 15.1817 11.1283 14.6827 11.3115 14.2157C11.4946 13.7486 11.7672 13.3229 12.1137 12.9628C12.4601 12.6027 12.8734 12.3154 13.33 12.1175C13.7865 11.9196 14.2773 11.8148 14.774 11.8094L15.2696 11.7311ZM15.1973 13.2976C13.1322 12.9582 11.7693 14.8642 12.7192 17.5692C13.7954 20.4852 13.9345 23.6704 13.1167 26.671C11.5679 32.1645 12.5075 34.1749 16.8184 33.4595C20.6151 32.7458 24.5078 32.7281 28.3107 33.4073C31.145 33.9713 32.5803 33.0522 32.5854 30.7128V20.8747C32.5854 19.1723 32.5854 17.47 32.5854 15.7676C32.605 15.4087 32.543 15.05 32.4043 14.719C32.2656 14.388 32.0538 14.0935 31.7852 13.8582C31.5166 13.6228 31.1983 13.4527 30.8547 13.3609C30.511 13.2692 30.1512 13.2583 29.8027 13.329C29.5962 14.0392 30.0815 15.2454 28.8424 15.2872C27.4743 15.3342 27.9751 14.0287 27.7479 13.2976H23.5093C23.3596 14.0966 23.7623 15.2245 22.58 15.282C21.1964 15.3499 21.6972 14.0496 21.4804 13.2872H17.2366C17.0869 14.0966 17.4844 15.2663 16.2402 15.2872C14.8875 15.282 15.4038 14.0235 15.1973 13.2976Z" fill="white"/>
<path d="M21.6146 18.9634H18.9971V21.5744H21.6146V18.9634Z" fill="white"/>
<path d="M25.9978 18.9791H23.3802V21.5953H25.9978V18.9791Z" fill="white"/>
<path d="M30.3448 18.9478H27.7428V21.5849H30.3448V18.9478Z" fill="white"/>
<path d="M17.2882 23.3551H14.6449V25.987H17.2882V23.3551Z" fill="white"/>
<path d="M21.6352 23.3499H19.0177V25.9869H21.6352V23.3499Z" fill="white"/>
<path d="M25.9668 23.3394H23.3699V25.9817H25.9668V23.3394Z" fill="white"/>
<path d="M30.3551 23.3551H27.7376V26.0026H30.3551V23.3551Z" fill="white"/>
<path d="M21.6352 27.7833H19.0229V30.4256H21.6352V27.7833Z" fill="white"/>
<path d="M25.9823 27.7624H23.3854V30.4151H25.9823V27.7624Z" fill="white"/>
<path d="M17.2676 27.7676H14.6707V30.4099H17.2676V27.7676Z" fill="white"/>
</g>
<defs>
<clipPath id="clip0_183_23">
<rect width="23" height="26" fill="white" transform="translate(11 9)"/>
</clipPath>
</defs>
</svg>
