<svg width="40" height="41" viewBox="0 0 40 41" fill="none" xmlns="http://www.w3.org/2000/svg">
<rect y="0.5" width="40" height="40" rx="20" fill="white"/>
<path d="M15.8378 26.5H12.5683V15.9883H15.8378V26.5ZM14.1855 14.582C13.1659 14.582 12.3222 13.7031 12.3222 12.6484C12.3222 11.6289 13.1659 10.7852 14.1855 10.7852C15.2402 10.7852 16.0839 11.6289 16.0839 12.6484C16.0839 13.7031 15.2402 14.582 14.1855 14.582ZM28.037 26.5H24.8027V21.4023C24.8027 20.1719 24.7675 18.625 23.08 18.625C21.3925 18.625 21.1464 19.9258 21.1464 21.2969V26.5H17.8769V15.9883H21.0058V17.4297H21.0409C21.498 16.6211 22.5527 15.7422 24.1347 15.7422C27.4394 15.7422 28.0722 17.9219 28.0722 20.7344V26.5H28.037Z" fill="#1A1719"/>
</svg>
