<svg width="45" height="43" viewBox="0 0 45 43" fill="none" xmlns="http://www.w3.org/2000/svg">
<rect width="44.4576" height="43" rx="8" fill="white" fill-opacity="0.1"/>
<rect x="0.5" y="0.5" width="43.4576" height="42" rx="7.5" stroke="white" stroke-opacity="0.15"/>
<g clip-path="url(#clip0_183_37)">
<path d="M22 12C21.0837 11.9962 20.1755 12.1765 19.3276 12.5305C18.4797 12.8845 17.7087 13.4053 17.0586 14.0631C16.4084 14.7209 15.892 15.5028 15.5387 16.3641C15.1855 17.2254 15.0025 18.1491 15 19.0825C15 21.0816 16.9252 24.6704 16.9252 24.6704L20.9043 31.5433C21.2845 32.2 22.2288 32.2106 22.6236 31.5627L26.7664 24.7656C26.7664 24.7656 29 21.3481 29 19.0539C28.9877 17.1738 28.2438 15.3754 26.9315 14.053C25.6193 12.7307 23.8459 11.9924 22 12ZM22 22.9855C21.207 22.9855 20.4319 22.746 19.7725 22.2972C19.1132 21.8485 18.5993 21.2107 18.2958 20.4644C17.9924 19.7182 17.9129 18.8971 18.0676 18.1049C18.2223 17.3127 18.6042 16.5851 19.1649 16.0139C19.7256 15.4428 20.4401 15.0538 21.2179 14.8962C21.9956 14.7386 22.8017 14.8195 23.5343 15.1286C24.267 15.4377 24.8931 15.9612 25.3337 16.6328C25.7742 17.3043 26.0093 18.0939 26.0093 18.9016C26.0093 19.4403 25.9047 19.9737 25.7015 20.4711C25.4983 20.9684 25.2004 21.4199 24.8251 21.7995C24.4498 22.1791 24.0045 22.4793 23.5148 22.6828C23.0252 22.8864 22.5008 22.9893 21.972 22.9855H22Z" fill="white"/>
</g>
<defs>
<clipPath id="clip0_183_37">
<rect width="14" height="21" fill="white" transform="translate(15 12)"/>
</clipPath>
</defs>
</svg>
