<svg width="45" height="44" viewBox="0 0 45 44" fill="none" xmlns="http://www.w3.org/2000/svg">
<rect width="45" height="44" rx="8" fill="white" fill-opacity="0.1"/>
<rect x="0.5" y="0.5" width="44" height="43" rx="7.5" stroke="white" stroke-opacity="0.15"/>
<g clip-path="url(#clip0_1382_2099)">
<path d="M23 10.1735C16.5385 10.1735 11.1726 14.848 11.1726 20.7298C11.1726 23.4972 12.4714 25.9295 14.4034 27.7969C14.3286 28.8668 13.7914 29.5065 13.0483 30.1341C12.6486 30.4701 12.2065 30.7849 11.8077 31.1726C11.4089 31.5603 11 32.0865 11 32.8157C10.9996 33.0206 11.0675 33.2198 11.1928 33.3819C11.3182 33.544 11.4939 33.6598 11.6923 33.7111C13.4258 34.1754 15.2923 33.8329 17 33.22C18.5378 32.668 19.8357 31.8511 20.8658 31.0572C21.5618 31.1717 22.2634 31.2585 23 31.2585C29.4615 31.2585 34.8274 26.6117 34.8274 20.7298C34.8274 14.8489 29.4615 10.1735 23 10.1735ZM23 12.0197C28.5809 12.0197 32.9812 15.9797 32.9812 20.7308C32.9812 25.4828 28.5809 29.4132 23 29.4132C22.2754 29.4132 21.5812 29.3698 20.8945 29.2406C20.76 29.2093 20.6201 29.2085 20.4853 29.2384C20.3505 29.2683 20.2241 29.328 20.1154 29.4132C19.2818 30.1138 17.8834 30.9557 16.3945 31.4901C15.4769 31.8197 14.5483 31.9701 13.6825 32.0098C13.8763 31.8529 14.0305 31.7421 14.2594 31.5483C15.1889 30.7637 16.3077 29.5028 16.3077 27.5957C16.3071 27.4643 16.2784 27.3346 16.2237 27.2153C16.1689 27.0959 16.0893 26.9895 15.9902 26.9034C14.144 25.3101 13.0197 23.1391 13.0197 20.7308C13.0197 15.9778 17.4191 12.0197 23 12.0197ZM23 14.6726C21.6477 14.6726 20.4902 15.6049 20.4902 17.356C20.4902 18.4978 21.0292 19.6406 21.7308 20.356C22.004 21.0732 21.5166 21.3566 21.4132 21.3945C19.9982 21.9058 18.3265 22.8372 18.3265 23.7594V24.1055C18.3265 25.3609 20.7477 25.6341 23 25.6341C25.256 25.6341 27.6735 25.3609 27.6735 24.1055V23.7594C27.6735 22.8114 26.0148 21.8855 24.5286 21.3945C24.4603 21.3723 24.0311 21.1692 24.2978 20.356C24.9948 19.6378 25.5098 18.4941 25.5098 17.356C25.5098 15.6058 24.3523 14.6726 23 14.6726Z" fill="white"/>
</g>
<defs>
<clipPath id="clip0_1382_2099">
<rect width="24" height="24" fill="white" transform="translate(11 10)"/>
</clipPath>
</defs>
</svg>
